<svg xmlns="http://www.w3.org/2000/svg" viewBox="0 0 622.75 624.25"><defs><style>.cls-1{fill:#341c09;stroke:#341c09;stroke-width:8px;}.cls-1,.cls-2{stroke-miterlimit:10;}.cls-2{fill:#2267b5;stroke:#2267b5;stroke-width:11px;}.cls-3{fill:#cce0f6;}.cls-4{fill:#b45914;}.cls-5{fill:#fc6f03;}</style></defs><g id="Layer_2" data-name="Layer 2"><path class="cls-1" d="M281.86,365.59s-29.54,46.59-33,77.27l-52.27,14.78s-5.69,81.81,0,84.09,54.54,18.18,54.54,18.18,12.5,53.41,30.68,77.27l-27.27,51.14s56.82,57.95,60.23,57.95S362.55,719,362.55,719,416,750.82,441,746.27c9.1,39.78,15.91,60.23,15.91,60.23H541l17-55.68s63.64-15.91,77.27-29.55a318.39,318.39,0,0,0,50,22.73s59.09-52.27,60.23-59.09-26.14-50-26.14-50,29.55-46.59,33-76.14a340.77,340.77,0,0,1,54.18-15.91s5.32-84.09,0-86.36-57.59-15.91-57.59-15.91-4.55-45.45-29.55-75c17-30.68,25-51.14,25-51.14s-48.86-60.22-59.09-61.36-46.59,27.27-46.59,27.27-42-28.41-81.82-34.09c-9.09-40.91-12.5-52.77-12.5-52.77s-78.41-7.32-85.22,0-19.32,55.05-19.32,55.05-54.55,12.5-72.73,32.95c-22.73-15.91-53.41-27.27-53.41-27.27s-53.41,46.59-56.82,61.36C267.09,338.32,281.86,365.59,281.86,365.59Z" transform="translate(-190.11 -186.25)"/><circle class="cls-2" cx="313.5" cy="313.82" r="188.4"/><path class="cls-3" d="M620.75,345.68c-45.24-43.59-217-85.88-293.76,74.74C259.24,588.17,414.53,679,431.19,681.17c10.68,4.21,111.24,35.07,181.91-20-97.73,14-125.47-43.75-135.81-76.16-40.09-37.08-91.2-70.43-24.05-211.45C503.61,317.4,620.75,345.68,620.75,345.68Z" transform="translate(-190.11 -186.25)"/></g><g id="Layer_4" data-name="Layer 4"><path class="cls-4" d="M360.57,551.7c-9-2-39.53-28.57-40.7-52.83s0-57.53,20.35-66.53,42.27,3.13,42.27,3.13,28.17-69.27,108.79-72.79,113.11,44.22,128.37,71.61c17.61-8.61,77.1-21.52,61.05,77.1-7.83,27.79-34.83,40.31-34.83,40.31Z" transform="translate(-190.11 -186.25)"/><path class="cls-5" d="M361,551.7c9.79-21.52,32.49-36,32.49-36,4.3-60.66,27.39-149.5,103.31-114.28,70.45-45,107.63,78.27,111.93,110.75,16,9.79,32.88,23.49,37.57,39.53,2.35,30.92-4.42,70.95-65.08,83.47s-104,11.63-144.29,1.85-80.24-23.73-79.45-72.8C359.06,551.7,361,551.7,361,551.7Z" transform="translate(-190.11 -186.25)"/></g><g id="Layer_3" data-name="Layer 3"><path class="cls-4" d="M287.94,415.46l22.23,6.17q3.15,6.19-1,21.25a47.91,47.91,0,0,1-1.68,5.14q-.87,2.18-1.77,3.93a8.79,8.79,0,0,1-2.19,2.82,20.52,20.52,0,0,1-2.5,1.81,6.88,6.88,0,0,1-3.19.88,36.57,36.57,0,0,1-3.74.07,29.57,29.57,0,0,1-4.65-.66q-2.88-.58-5.47-1.23t-6.63-1.77c-2.29-.63-4.25-1.19-5.86-1.68s-3.25-1-4.91-1.62a38.84,38.84,0,0,1-4.08-1.7,28.53,28.53,0,0,1-3.16-1.85,10.77,10.77,0,0,1-2.41-2.11,13.9,13.9,0,0,1-1.57-2.5,8.5,8.5,0,0,1-.89-3,25.19,25.19,0,0,1-.1-3.57,26.18,26.18,0,0,1,.53-4.27q.47-2.26,1.24-5.09c0-.11.08-.29.15-.52.45-1.62.8-2.85,1.06-3.68s.65-1.93,1.2-3.32a12.69,12.69,0,0,1,1.61-3.09,19,19,0,0,1,2.12-2.26,6.39,6.39,0,0,1,2.88-1.6,16.31,16.31,0,0,1,3.75-.34,19,19,0,0,1,4.88.75c.42.12,1,.3,1.72.56l-.54,6.55L268,418a3.06,3.06,0,0,0-3.58,1.74,46.24,46.24,0,0,0-3.23,9.18,33.86,33.86,0,0,0-1.4,7.26,6.1,6.1,0,0,0,.83,3.83,6.81,6.81,0,0,0,3.19,2.12q7.05,2.3,14.53,4.37T293,450.25a20.93,20.93,0,0,0,5,.76,4.12,4.12,0,0,0,3.13-2.39,37.46,37.46,0,0,0,2.71-7.6q3.3-11.91,2.06-13.63-3.58-1-14.55-4L289,432.15l-5.42-.86Z" transform="translate(-190.11 -186.25)"/><path class="cls-4" d="M318.16,371.41c-1.18,2.65-1.93,4.29-2.23,4.92l-9.76,17.08q4.56,2.56,10.11,5.45a3.4,3.4,0,0,0,3.8-.22c1.08-.84,2.52-2.85,4.34-6a35.37,35.37,0,0,0,1.61-3.16,7.8,7.8,0,0,0,.69-2.37,8.51,8.51,0,0,0,0-1.65,2.29,2.29,0,0,0-.65-1.26,7.71,7.71,0,0,0-1-1c-.3-.23-.77-.55-1.4-1s-1.14-.78-1.53-1.08l3.62-4.29a32.63,32.63,0,0,1,3.54,2.43,10.51,10.51,0,0,1,2.19,2.38,6.58,6.58,0,0,1,1,2.46,7.55,7.55,0,0,1-.14,2.83,15.88,15.88,0,0,1-1.16,3.37q-.81,1.74-2.2,4.19a42.44,42.44,0,0,1-3.48,5.24,31.25,31.25,0,0,1-3.16,3.46,6.94,6.94,0,0,1-3.29,1.72,15.5,15.5,0,0,1-3.26.36,10.67,10.67,0,0,1-3.74-1c-1.53-.62-2.89-1.24-4.08-1.85s-2.81-1.5-4.85-2.67c-2.89-1.65-5.11-3-6.68-4A35.16,35.16,0,0,1,292,392.5a10.21,10.21,0,0,1-2.76-3.36,9.4,9.4,0,0,1-.6-3.67,11.8,11.8,0,0,1,1-4.61,56.45,56.45,0,0,1,3-5.89q1.38-2.42,2.52-4.09a18.17,18.17,0,0,1,2.43-2.89,12.29,12.29,0,0,1,2.39-1.86,6.13,6.13,0,0,1,2.63-.74,10.38,10.38,0,0,1,2.91.17A18.49,18.49,0,0,1,309,366.7c1.39.57,2.76,1.22,4.11,1.93S316.17,370.27,318.16,371.41ZM302.89,391.5,311.78,376c-2.7-1.48-5.21-2.78-7.52-3.88a3.12,3.12,0,0,0-3.49.19q-1.51,1.15-3.82,5.2-2.56,4.47-2.74,6a2.33,2.33,0,0,0,0,1.23,3.35,3.35,0,0,0,.74,1.28,12.58,12.58,0,0,0,1.13,1.16,13.4,13.4,0,0,0,1.61,1.22c.71.47,1.26.84,1.66,1.09s1,.63,1.84,1.12Z" transform="translate(-190.11 -186.25)"/><path class="cls-4" d="M364.36,348.51l-3.82,4.14-5-3a7.23,7.23,0,0,1,1,6.25,21.35,21.35,0,0,1-4.71,6.93,21.07,21.07,0,0,1-4.53,3.87,7.5,7.5,0,0,1-4.24,1.1,9.43,9.43,0,0,1-4.27-1.37,30,30,0,0,1-4.9-3.82,7.37,7.37,0,0,1-1.82-2.49,6.64,6.64,0,0,1-.57-2.74,9.09,9.09,0,0,1,.67-3.12,21.86,21.86,0,0,1,1.62-3.34,37.85,37.85,0,0,1,2.56-3.71q1.61-2.07,3.24-4t3.89-4.31l-7.87-7.28a2.56,2.56,0,0,0-3-.46,18.77,18.77,0,0,0-4.7,4.06q-2.11,2.28-3.06,3.52a4.08,4.08,0,0,0-1,2.31,2.61,2.61,0,0,0,.38,1.63,19.12,19.12,0,0,0,1.78,1.86c.32.33.57.58.77.76l-3.91,3.91a13,13,0,0,1-1.3-1.1,10.73,10.73,0,0,1-2.53-3.29,7.08,7.08,0,0,1-.7-3.13,8,8,0,0,1,1-3.27,19.19,19.19,0,0,1,2.12-3.3q1.19-1.52,3.12-3.6a30.72,30.72,0,0,1,5.27-4.72,8.85,8.85,0,0,1,9.66-.39,29.93,29.93,0,0,1,5.61,4.27ZM351.21,346l-4.53-4.19a83.46,83.46,0,0,0-7,8.4q-2.19,3.18-2.37,4.77a3.18,3.18,0,0,0,1.11,2.77l.16.15q4,3.72,5.62,4t4.73-3.15a18.06,18.06,0,0,0,3.65-5.33,6.76,6.76,0,0,0,.55-4.13A7.35,7.35,0,0,0,351.21,346Z" transform="translate(-190.11 -186.25)"/><path class="cls-4" d="M367.81,294.68l3.32,5a18.45,18.45,0,0,0-2.2,1.39,14.37,14.37,0,0,0-3.06,2.85,4.31,4.31,0,0,0-.91,2.82,7.17,7.17,0,0,0,.77,2.9,25.84,25.84,0,0,0,2.26,3.55c.59.8,1.47,1.94,2.66,3.43s2,2.56,2.51,3.22l10,13.73-5.75,4.19-23.36-32L359.3,302l3.21,3.16a8.67,8.67,0,0,1,.36-5.25,10.12,10.12,0,0,1,3.56-4.37A13.48,13.48,0,0,1,367.81,294.68Z" transform="translate(-190.11 -186.25)"/><path class="cls-4" d="M401.42,319.77l-18.16-51,7.35-3,30.49,33.23L419,254l7.35-3,23.26,48.94L443,302.61l-18.26-39.37L427.49,309l-3.87,1.59-30.89-33.81,14.93,40.39Z" transform="translate(-190.11 -186.25)"/><path class="cls-4" d="M479.71,296.45a58.1,58.1,0,0,1-6.67.43,12.12,12.12,0,0,1-4.73-.91,10.29,10.29,0,0,1-3.19-2,9.65,9.65,0,0,1-2-3.74,33,33,0,0,1-1.29-5.21q-.42-2.61-.94-7.27-.39-3.48-.56-5.82a42.13,42.13,0,0,1-.1-4.62,20.19,20.19,0,0,1,.4-3.72,9.92,9.92,0,0,1,1.11-2.77,6.53,6.53,0,0,1,1.85-2.12,13.16,13.16,0,0,1,2.8-1.45,20,20,0,0,1,3.8-1.08c1.38-.27,3.05-.51,5-.73s3.62-.35,5-.4a21.63,21.63,0,0,1,3.94.22,13,13,0,0,1,3.06.8,6.69,6.69,0,0,1,2.27,1.65,10.27,10.27,0,0,1,1.69,2.46,19.68,19.68,0,0,1,1.21,3.54,44.11,44.11,0,0,1,.93,4.52q.35,2.32.74,5.81.53,4.66.69,7.29a32.25,32.25,0,0,1-.11,5.37,9.53,9.53,0,0,1-1.15,4.11,10.24,10.24,0,0,1-2.68,2.66,12.41,12.41,0,0,1-4.42,1.91A54.08,54.08,0,0,1,479.71,296.45Zm-.48-4.95a28.65,28.65,0,0,0,7-1.55,2.54,2.54,0,0,0,1.71-2.77q-.18-5.18-.94-11.92c-.17-1.48-.46-3.6-.89-6.35s-.72-4.79-.87-6.13a3.08,3.08,0,0,0-.32-1.09,2,2,0,0,0-.74-.77,6.8,6.8,0,0,0-1-.49,4,4,0,0,0-1.3-.26l-1.39-.1a10,10,0,0,0-1.59,0c-.69.05-1.21.1-1.58.14l-1.64.18-1.63.18c-.37,0-.89.12-1.57.22a10.31,10.31,0,0,0-1.57.32l-1.33.4a4.19,4.19,0,0,0-1.21.54,7.4,7.4,0,0,0-.83.69,1.84,1.84,0,0,0-.55.91,3,3,0,0,0-.08,1.14c.15,1.34.32,3.39.51,6.17s.37,4.91.54,6.39q.75,6.75,1.72,11.83a2.63,2.63,0,0,0,2.39,2.36A24.86,24.86,0,0,0,479.23,291.5Z" transform="translate(-190.11 -186.25)"/><path class="cls-4" d="M542.76,298.28l-7.06-.9,3-23.78c.19-1.52.34-2.75.45-3.67s.17-1.85.21-2.79,0-1.65,0-2.13a5.23,5.23,0,0,0-.34-1.46,2.53,2.53,0,0,0-.65-1.05,4.83,4.83,0,0,0-1.09-.63,6.17,6.17,0,0,0-1.46-.46c-.5-.09-1.17-.19-2-.29a29.46,29.46,0,0,0-4.68-.29,12.73,12.73,0,0,0-3.24.44,4.27,4.27,0,0,0-2.07,1.26,6.09,6.09,0,0,0-1.19,2,13.28,13.28,0,0,0-.6,2.74c-.08.62-.18,1.71-.31,3.25s-.25,2.81-.37,3.76l-2.68,20.95-7.06-.9,5-39.29,6.45.83.11,4.49a6.7,6.7,0,0,1,4.66-3.7,20.27,20.27,0,0,1,7.76-.31,23.25,23.25,0,0,1,3.66.72,10.34,10.34,0,0,1,2.75,1.2,10.8,10.8,0,0,1,2,1.63,6.14,6.14,0,0,1,1.28,2.18,16,16,0,0,1,.7,2.65,18.74,18.74,0,0,1,.2,3.31c0,1.3-.1,2.6-.21,3.88s-.29,2.81-.51,4.58Z" transform="translate(-190.11 -186.25)"/><path class="cls-4" d="M588.86,313.61l-7.34-2.72-5.77-24.16-4.4,2.34-5.88,15.87-6.7-2.48,18.62-50.31,6.91,1.94-9,24.38c-.21.56-.54,1.45-1,2.67s-.79,2.09-1,2.63q1.51-.75,4.35-2.23c1.89-1,3.16-1.65,3.78-2l12.41-6.38,7.58,2.81-19.48,9.68Z" transform="translate(-190.11 -186.25)"/><path class="cls-4" d="M636.05,318.9q-3.87-2-4.79-2.51l-16.5-10.71q-2.82,4.41-6,9.78a3.39,3.39,0,0,0,0,3.81q1.17,1.68,5.77,4.67a31.7,31.7,0,0,0,3.05,1.79,8,8,0,0,0,2.33.83,8.78,8.78,0,0,0,1.64.12,2.25,2.25,0,0,0,1.31-.58,8.94,8.94,0,0,0,1-1c.24-.29.59-.74,1-1.35s.84-1.09,1.16-1.46l4.09,3.86a31.63,31.63,0,0,1-2.64,3.39,10.44,10.44,0,0,1-2.5,2.06,6.42,6.42,0,0,1-2.51.88,7.23,7.23,0,0,1-2.81-.3,15.86,15.86,0,0,1-3.31-1.34q-1.7-.92-4-2.44a41.21,41.21,0,0,1-5-3.77,28.71,28.71,0,0,1-3.27-3.35,6.88,6.88,0,0,1-1.53-3.38,15.24,15.24,0,0,1-.17-3.28,10.66,10.66,0,0,1,1.16-3.68q1.07-2.24,2.08-4t2.94-4.69c1.81-2.79,3.25-4.93,4.33-6.44a35.78,35.78,0,0,1,3.63-4.3A10.38,10.38,0,0,1,620,289a9.55,9.55,0,0,1,3.7-.39,12,12,0,0,1,4.55,1.29,57.23,57.23,0,0,1,5.7,3.34q2.34,1.51,3.94,2.75a18.14,18.14,0,0,1,2.76,2.59,13,13,0,0,1,1.71,2.49,6.17,6.17,0,0,1,.6,2.66,11.05,11.05,0,0,1-.34,2.91,19.58,19.58,0,0,1-1.33,3.41c-.65,1.36-1.38,2.69-2.17,4S637.29,317,636.05,318.9Zm-19.2-16.38,15,9.75q2.46-3.91,4.3-7.28a3.12,3.12,0,0,0,0-3.5q-1.06-1.58-5-4.11c-2.89-1.88-4.82-2.9-5.79-3.08a2.49,2.49,0,0,0-1.24-.05,3.44,3.44,0,0,0-1.32.67c-.46.36-.87.72-1.23,1.06a16,16,0,0,0-1.3,1.54l-1.19,1.6c-.27.38-.68,1-1.21,1.77Z" transform="translate(-190.11 -186.25)"/><path class="cls-4" d="M656.86,367.8l-4.76-5.57L693,327.32l4.76,5.58Z" transform="translate(-190.11 -186.25)"/><path class="cls-4" d="M683.62,408.84l-3.54-6.16,20.77-12,3.2-1.86c.79-.48,1.58-1,2.35-1.53a18.35,18.35,0,0,0,1.69-1.29,5,5,0,0,0,1-1.15,2.65,2.65,0,0,0,.45-1.15,5,5,0,0,0-.16-1.25,6.33,6.33,0,0,0-.52-1.44c-.23-.45-.56-1-1-1.77a29.5,29.5,0,0,0-2.6-3.9,12.93,12.93,0,0,0-2.31-2.32,4.31,4.31,0,0,0-2.26-.88,5.9,5.9,0,0,0-2.29.25,13.86,13.86,0,0,0-2.55,1.18c-.54.31-1.47.89-2.78,1.72s-2.38,1.5-3.21,2l-18.3,10.54L668,381.68l34.32-19.76,3.24,5.63L702,370.37a6.65,6.65,0,0,1,5.77,1.47,20.24,20.24,0,0,1,4.94,6,23.74,23.74,0,0,1,1.64,3.35,10.27,10.27,0,0,1,.62,5.5,6.12,6.12,0,0,1-1,2.34,15.64,15.64,0,0,1-1.69,2.16,19.16,19.16,0,0,1-2.51,2.16c-1.06.77-2.13,1.5-3.22,2.18s-2.41,1.47-4,2.36Z" transform="translate(-190.11 -186.25)"/><path class="cls-4" d="M725.66,444.65,723,439.33l4.59-2.17a5.26,5.26,0,0,0,1.91-1.3q.76-1.2-.33-5.33c-.17-.65-.37-1.37-.61-2.15a24.42,24.42,0,0,0-2.37-6c-.51-1-1.79-1.46-3.85-1.36a30.22,30.22,0,0,0-7.23,1.38l-6,1.84-3.42,1-4,1.21a13.48,13.48,0,0,0-2.53,1.1,3.93,3.93,0,0,0-1.62,1.26,6.37,6.37,0,0,0-.39,1.76,6.53,6.53,0,0,0,.19,2.52c.23.85.59,2.07,1.07,3.66a33.72,33.72,0,0,0,1.11,3.19c.37.88.71,1.62,1,2.22a4,4,0,0,0,1.12,1.36,7.46,7.46,0,0,0,1.13.67,2.72,2.72,0,0,0,1.35.14,11.66,11.66,0,0,0,1.46-.19c.41-.09,1-.22,1.82-.42s1.5-.34,2.07-.44l.75,6c-1.84.4-3.33.68-4.47.83a15.48,15.48,0,0,1-3.4.09,6,6,0,0,1-2.76-.83,9.55,9.55,0,0,1-2.16-2.1,14.54,14.54,0,0,1-1.94-3.49q-.83-2.07-1.79-5.25c-.46-1.52-.82-2.9-1.09-4.14a16.43,16.43,0,0,1-.43-3.47c0-1.08,0-2,.05-2.84a4.75,4.75,0,0,1,.81-2.38c.5-.76.93-1.41,1.3-1.94a6.55,6.55,0,0,1,2.07-1.66c1-.58,1.87-1.05,2.58-1.42a30.13,30.13,0,0,1,3.38-1.35c1.54-.54,2.84-1,3.92-1.32s2.65-.81,4.7-1.43q2.76-.84,4.82-1.34a35.91,35.91,0,0,1,4-.76,15.41,15.41,0,0,1,3.32-.11,9.61,9.61,0,0,1,2.7.66,6.88,6.88,0,0,1,2.28,1.42,12.48,12.48,0,0,1,1.88,2.37,20.82,20.82,0,0,1,1.69,3.34c.5,1.24,1,2.72,1.52,4.42a40.38,40.38,0,0,1,1.33,5.62,16,16,0,0,1,.11,4.28,6.77,6.77,0,0,1-1.34,3.38,11.1,11.1,0,0,1-2.95,2.59A24.11,24.11,0,0,1,725.66,444.65Z" transform="translate(-190.11 -186.25)"/><path class="cls-5" d="M290.89,417.54l22.29,5.92q3.22,6.15-.79,21.26a49.92,49.92,0,0,1-1.63,5.16c-.56,1.45-1.13,2.77-1.72,3.95a8.93,8.93,0,0,1-2.16,2.84,22.88,22.88,0,0,1-2.48,1.84,6.91,6.91,0,0,1-3.18.91,34.28,34.28,0,0,1-3.74.11,29.61,29.61,0,0,1-4.66-.6q-2.88-.56-5.48-1.18t-6.65-1.69q-3.45-.92-5.88-1.61t-4.93-1.57a39.21,39.21,0,0,1-4.1-1.65,28.44,28.44,0,0,1-3.18-1.82,10.87,10.87,0,0,1-2.43-2.08,14.33,14.33,0,0,1-1.6-2.48,8.72,8.72,0,0,1-.92-3,24.73,24.73,0,0,1-.14-3.57A26,26,0,0,1,258,434q.43-2.28,1.19-5.1l.14-.52q.65-2.44,1-3.69c.24-.83.63-1.95,1.16-3.34a13.4,13.4,0,0,1,1.57-3.11,20.35,20.35,0,0,1,2.1-2.28,6.43,6.43,0,0,1,2.87-1.63,16.45,16.45,0,0,1,3.74-.39,19,19,0,0,1,4.89.71c.42.11,1,.28,1.73.53l-.47,6.56-7-1.44a3,3,0,0,0-3.55,1.78,45.65,45.65,0,0,0-3.14,9.21,34.18,34.18,0,0,0-1.32,7.28,6.06,6.06,0,0,0,.88,3.81,6.71,6.71,0,0,0,3.21,2.09q7.08,2.22,14.57,4.21t14.74,3.57a20.6,20.6,0,0,0,5.05.71,4.12,4.12,0,0,0,3.1-2.43,37.34,37.34,0,0,0,2.63-7.63Q310.29,431,309,429.26q-3.61-.92-14.6-3.84l-2.33,8.8-5.43-.81Z" transform="translate(-190.11 -186.25)"/><path class="cls-5" d="M320.61,373.15c-1.15,2.67-1.88,4.32-2.17,5l-9.58,17.19q4.59,2.5,10.17,5.33a3.41,3.41,0,0,0,3.81-.26c1.06-.85,2.49-2.87,4.27-6.07.66-1.2,1.19-2.26,1.58-3.17a8.38,8.38,0,0,0,.66-2.38,8.28,8.28,0,0,0,0-1.65,2.3,2.3,0,0,0-.67-1.26,9.18,9.18,0,0,0-1-.95c-.3-.22-.77-.54-1.41-.95s-1.15-.76-1.53-1.06l3.57-4.33a34.53,34.53,0,0,1,3.56,2.39,10.63,10.63,0,0,1,2.22,2.36,6.41,6.41,0,0,1,1.05,2.44,7.27,7.27,0,0,1-.11,2.83,15.81,15.81,0,0,1-1.12,3.39q-.78,1.76-2.16,4.21a43.24,43.24,0,0,1-3.41,5.29,29.85,29.85,0,0,1-3.12,3.48,7,7,0,0,1-3.27,1.76,15.71,15.71,0,0,1-3.26.39,10.67,10.67,0,0,1-3.75-.91c-1.54-.6-2.9-1.21-4.1-1.8s-2.82-1.47-4.88-2.62c-2.91-1.62-5.15-2.91-6.72-3.89a34.21,34.21,0,0,1-4.53-3.33,10.06,10.06,0,0,1-2.8-3.33,9.49,9.49,0,0,1-.64-3.66,12,12,0,0,1,1-4.62,56.36,56.36,0,0,1,2.95-5.92q1.35-2.43,2.47-4.12A17.82,17.82,0,0,1,300,370a12.11,12.11,0,0,1,2.37-1.88,6.2,6.2,0,0,1,2.62-.78,11.3,11.3,0,0,1,2.92.14,20.57,20.57,0,0,1,3.49,1.1q2.1.84,4.14,1.89C316.94,371.13,318.61,372,320.61,373.15Zm-15,20.26,8.71-15.64c-2.71-1.46-5.23-2.72-7.55-3.8a3.13,3.13,0,0,0-3.5.23c-1,.78-2.25,2.52-3.76,5.24-1.68,3-2.57,5-2.68,6a2.48,2.48,0,0,0,0,1.24,3.32,3.32,0,0,0,.76,1.27,15.53,15.53,0,0,0,1.13,1.15,14.17,14.17,0,0,0,1.63,1.2c.72.47,1.28.83,1.68,1.07s1,.62,1.85,1.1Z" transform="translate(-190.11 -186.25)"/><path class="cls-5" d="M366.56,349.75l-3.77,4.18-5-2.95a7.24,7.24,0,0,1,1.05,6.24,21.37,21.37,0,0,1-4.63,7,20.88,20.88,0,0,1-4.49,3.92,7.39,7.39,0,0,1-4.23,1.14,9.4,9.4,0,0,1-4.28-1.31,29.91,29.91,0,0,1-4.94-3.77,7.32,7.32,0,0,1-1.85-2.47,6.6,6.6,0,0,1-.6-2.73,9.06,9.06,0,0,1,.63-3.13,23.31,23.31,0,0,1,1.58-3.36,37,37,0,0,1,2.53-3.73c1.05-1.4,2.12-2.73,3.19-4s2.36-2.72,3.85-4.36l-8-7.19a2.55,2.55,0,0,0-3.05-.42A18.5,18.5,0,0,0,330,336.9c-1.39,1.53-2.39,2.72-3,3.55a4,4,0,0,0-1,2.32,2.54,2.54,0,0,0,.4,1.63,18.94,18.94,0,0,0,1.79,1.84q.49.5.78.75l-3.86,4a15.65,15.65,0,0,1-1.31-1.09,10.59,10.59,0,0,1-2.57-3.27,6.94,6.94,0,0,1-.73-3.12,7.92,7.92,0,0,1,.95-3.28,19.19,19.19,0,0,1,2.08-3.32q1.17-1.53,3.09-3.64a30.09,30.09,0,0,1,5.21-4.77,8.82,8.82,0,0,1,9.65-.5,30.1,30.1,0,0,1,5.66,4.21Zm-13.18-2.33-4.58-4.14a85.08,85.08,0,0,0-6.93,8.48c-1.44,2.14-2.21,3.73-2.31,4.79a3.18,3.18,0,0,0,1.13,2.76l.16.14q4.08,3.69,5.67,3.91c1.06.15,2.63-.92,4.69-3.2a18.21,18.21,0,0,0,3.59-5.37,6.74,6.74,0,0,0,.51-4.14A7.43,7.43,0,0,0,353.38,347.42Z" transform="translate(-190.11 -186.25)"/><path class="cls-5" d="M369.41,295.88l3.38,5a18.81,18.81,0,0,0-2.19,1.41,13.86,13.86,0,0,0-3,2.9,4.34,4.34,0,0,0-.89,2.82,7.35,7.35,0,0,0,.81,2.89,25.77,25.77,0,0,0,2.3,3.53q.88,1.19,2.7,3.4c1.2,1.47,2.05,2.53,2.54,3.19l10.18,13.62-5.7,4.25-23.71-31.72L361,303.3l3.23,3.13a8.71,8.71,0,0,1,.31-5.26,10.12,10.12,0,0,1,3.51-4.4A13.44,13.44,0,0,1,369.41,295.88Z" transform="translate(-190.11 -186.25)"/><path class="cls-5" d="M403.3,320.6l-18.72-50.85,7.31-3.11,30.86,32.9-2.56-44.93,7.31-3.11,23.8,48.68-6.57,2.8L426,263.82l3.21,45.74-3.85,1.64-31.26-33.47L409.51,318Z" transform="translate(-190.11 -186.25)"/><path class="cls-5" d="M481.33,296.42a57.69,57.69,0,0,1-6.67.49,12.19,12.19,0,0,1-4.74-.85,10.32,10.32,0,0,1-3.21-2,9.48,9.48,0,0,1-2.06-3.71,33.18,33.18,0,0,1-1.35-5.2q-.45-2.6-1-7.26-.42-3.46-.63-5.81a45,45,0,0,1-.15-4.62,21.62,21.62,0,0,1,.36-3.72,10,10,0,0,1,1.08-2.79,6.65,6.65,0,0,1,1.83-2.13,12.91,12.91,0,0,1,2.78-1.49,20.83,20.83,0,0,1,3.79-1.12q2.07-.42,5-.78c1.93-.24,3.6-.39,5-.46a22,22,0,0,1,4,.17,13.37,13.37,0,0,1,3,.77,6.72,6.72,0,0,1,2.3,1.63,10.1,10.1,0,0,1,1.72,2.44,20.72,20.72,0,0,1,1.25,3.52,43.61,43.61,0,0,1,1,4.52c.25,1.54.52,3.48.81,5.79q.57,4.67.77,7.29a33.27,33.27,0,0,1-.05,5.37,9.4,9.4,0,0,1-1.11,4.12,10.15,10.15,0,0,1-2.65,2.69,12.27,12.27,0,0,1-4.4,2A55.73,55.73,0,0,1,481.33,296.42Zm-.54-5a28.56,28.56,0,0,0,7-1.62,2.53,2.53,0,0,0,1.68-2.79q-.24-5.18-1.07-11.91-.27-2.22-1-6.34t-.94-6.12a3.16,3.16,0,0,0-.33-1.09,2,2,0,0,0-.75-.76,7.92,7.92,0,0,0-1-.48,4.13,4.13,0,0,0-1.3-.24l-1.39-.08a10.43,10.43,0,0,0-1.6.05c-.68.06-1.21.11-1.58.16l-1.63.2-1.63.2c-.37.05-.89.12-1.57.23a10.69,10.69,0,0,0-1.56.34l-1.33.42a4.19,4.19,0,0,0-1.21.54,8.65,8.65,0,0,0-.82.71,1.93,1.93,0,0,0-.54.92,3,3,0,0,0-.06,1.13c.16,1.34.36,3.4.58,6.17s.42,4.9.6,6.38c.56,4.49,1.17,8.43,1.86,11.81a2.63,2.63,0,0,0,2.41,2.34A24.63,24.63,0,0,0,480.79,291.46Z" transform="translate(-190.11 -186.25)"/><path class="cls-5" d="M544.39,297.55l-7.06-.83,2.78-23.8c.17-1.53.31-2.76.41-3.68s.15-1.86.18-2.8,0-1.65,0-2.13a5.34,5.34,0,0,0-.35-1.46,2.66,2.66,0,0,0-.66-1,5.41,5.41,0,0,0-1.09-.61,5.85,5.85,0,0,0-1.48-.45c-.5-.08-1.17-.17-2-.27a31.23,31.23,0,0,0-4.68-.24,13.56,13.56,0,0,0-3.24.48,4.33,4.33,0,0,0-2.06,1.29,5.92,5.92,0,0,0-1.15,2,12.87,12.87,0,0,0-.58,2.75c-.07.62-.16,1.7-.27,3.25s-.22,2.81-.33,3.76l-2.45,21-7.06-.82,4.59-39.34,6.45.75.17,4.49a6.73,6.73,0,0,1,4.62-3.75,20.46,20.46,0,0,1,7.75-.4,24.5,24.5,0,0,1,3.66.68,10.46,10.46,0,0,1,2.77,1.18,9.76,9.76,0,0,1,2,1.6,5.92,5.92,0,0,1,1.31,2.17,14.69,14.69,0,0,1,.73,2.65,18.18,18.18,0,0,1,.23,3.29c0,1.31-.06,2.61-.16,3.89s-.25,2.81-.46,4.58Z" transform="translate(-190.11 -186.25)"/><path class="cls-5" d="M590.66,312.36l-7.37-2.64-6-24.09L572.88,288,567.18,304l-6.73-2.41L578.51,251l6.93,1.86-8.76,24.48-1,2.68c-.45,1.22-.78,2.1-1,2.64q1.5-.76,4.33-2.28c1.88-1,3.13-1.68,3.76-2l12.33-6.51,7.62,2.72-19.38,9.91Z" transform="translate(-190.11 -186.25)"/><path class="cls-5" d="M637.9,317.13c-2.59-1.3-4.2-2.12-4.81-2.45l-16.62-10.53q-2.78,4.44-5.9,9.85a3.4,3.4,0,0,0,0,3.81c.79,1.11,2.73,2.65,5.82,4.6a31.73,31.73,0,0,0,3.08,1.76,8.16,8.16,0,0,0,2.33.8,8.56,8.56,0,0,0,1.65.1,2.22,2.22,0,0,0,1.29-.59,8.71,8.71,0,0,0,1-1c.24-.28.58-.74,1-1.35s.83-1.11,1.15-1.48l4.12,3.82a33.44,33.44,0,0,1-2.59,3.42A10.67,10.67,0,0,1,627,330a6.52,6.52,0,0,1-2.5.91,7.36,7.36,0,0,1-2.82-.26,16.55,16.55,0,0,1-3.32-1.31q-1.7-.9-4.08-2.4a42.08,42.08,0,0,1-5.08-3.71,29.39,29.39,0,0,1-3.31-3.32,6.82,6.82,0,0,1-1.56-3.36,14.78,14.78,0,0,1-.21-3.28,10.55,10.55,0,0,1,1.12-3.69q1-2.24,2-4c.67-1.17,1.63-2.74,2.89-4.73q2.67-4.22,4.27-6.49A34.79,34.79,0,0,1,618,290a10.21,10.21,0,0,1,3.48-2.6,9.44,9.44,0,0,1,3.7-.43,11.74,11.74,0,0,1,4.55,1.24,58.1,58.1,0,0,1,5.75,3.28q2.34,1.49,4,2.7a18.72,18.72,0,0,1,2.78,2.56,12.87,12.87,0,0,1,1.74,2.47,6.17,6.17,0,0,1,.63,2.66,11.1,11.1,0,0,1-.31,2.91,19.51,19.51,0,0,1-1.3,3.43q-.94,2-2.12,4T637.9,317.13ZM618.53,301l15.12,9.59q2.42-3.94,4.22-7.33a3.1,3.1,0,0,0,0-3.5q-1.08-1.56-5-4.06-4.37-2.76-5.83-3a2.48,2.48,0,0,0-1.24,0,3.37,3.37,0,0,0-1.31.68c-.46.37-.86.73-1.21,1.07a14.38,14.38,0,0,0-1.29,1.56c-.51.69-.9,1.23-1.17,1.61s-.67,1-1.19,1.79S618.71,300.68,618.53,301Z" transform="translate(-190.11 -186.25)"/><path class="cls-5" d="M659.26,365.8l-4.82-5.52L695,324.92l4.81,5.52Z" transform="translate(-190.11 -186.25)"/><path class="cls-5" d="M686.47,406.54l-3.61-6.12,20.64-12.19c1.32-.78,2.38-1.42,3.17-1.9s1.57-1,2.34-1.55,1.32-1,1.68-1.3a5,5,0,0,0,.94-1.17,2.5,2.5,0,0,0,.43-1.15,5,5,0,0,0-.16-1.25,6.89,6.89,0,0,0-.54-1.44c-.24-.45-.57-1-1-1.76a29.78,29.78,0,0,0-2.64-3.87,13,13,0,0,0-2.34-2.29,4.31,4.31,0,0,0-2.27-.86,6,6,0,0,0-2.28.28,13.22,13.22,0,0,0-2.54,1.21c-.54.32-1.46.9-2.76,1.75s-2.36,1.53-3.19,2l-18.19,10.73-3.61-6.12,34.1-20.14,3.3,5.6-3.47,2.85a6.69,6.69,0,0,1,5.78,1.4,20.6,20.6,0,0,1,5,5.93,25.84,25.84,0,0,1,1.67,3.33,10.9,10.9,0,0,1,.74,2.92,10.34,10.34,0,0,1-.06,2.57,6.12,6.12,0,0,1-.93,2.36,16.33,16.33,0,0,1-1.67,2.18,18.88,18.88,0,0,1-2.49,2.18c-1,.78-2.11,1.52-3.19,2.22s-2.39,1.5-3.93,2.4Z" transform="translate(-190.11 -186.25)"/><path class="cls-5" d="M728.9,441.88l-2.68-5.29,4.57-2.22a5.37,5.37,0,0,0,1.89-1.31c.5-.82.37-2.59-.38-5.33-.18-.65-.39-1.37-.64-2.15a23.67,23.67,0,0,0-2.44-6c-.51-1-1.8-1.44-3.86-1.32a29.9,29.9,0,0,0-7.22,1.47l-5.94,1.9-3.41,1.07-4,1.25a12.81,12.81,0,0,0-2.52,1.13,4,4,0,0,0-1.61,1.28,6.08,6.08,0,0,0-.37,1.76,6.55,6.55,0,0,0,.22,2.52c.24.85.61,2.06,1.11,3.65a32.49,32.49,0,0,0,1.14,3.17c.38.88.73,1.62,1.05,2.21A3.94,3.94,0,0,0,705,441a6.73,6.73,0,0,0,1.14.67,2.86,2.86,0,0,0,1.35.13,13.13,13.13,0,0,0,1.46-.22c.4-.08,1-.23,1.81-.43s1.5-.36,2.07-.46l.81,5.95c-1.84.42-3.32.72-4.45.88a15.58,15.58,0,0,1-3.41.13,6.08,6.08,0,0,1-2.76-.8,9.26,9.26,0,0,1-2.19-2.08,14.23,14.23,0,0,1-2-3.47q-.86-2.05-1.85-5.22c-.48-1.52-.86-2.89-1.14-4.13a17.23,17.23,0,0,1-.47-3.47c0-1.07,0-2,0-2.84a4.8,4.8,0,0,1,.78-2.38c.49-.77.92-1.43,1.28-2a6.56,6.56,0,0,1,2-1.68c1-.59,1.86-1.07,2.57-1.45a30.24,30.24,0,0,1,3.37-1.39c1.52-.56,2.83-1,3.9-1.36L714,414c1.84-.57,3.44-1,4.81-1.39a36,36,0,0,1,4-.8,16.45,16.45,0,0,1,3.32-.15,10,10,0,0,1,2.72.63,7,7,0,0,1,2.29,1.4,12.34,12.34,0,0,1,1.91,2.35,21,21,0,0,1,1.72,3.32c.52,1.24,1,2.71,1.57,4.41a40.13,40.13,0,0,1,1.4,5.59,16.58,16.58,0,0,1,.15,4.29,6.8,6.8,0,0,1-1.3,3.39,11.2,11.2,0,0,1-2.92,2.62A24.31,24.31,0,0,1,728.9,441.88Z" transform="translate(-190.11 -186.25)"/></g></svg>