<svg id="Layer_1" data-name="Layer 1" xmlns="http://www.w3.org/2000/svg" viewBox="0 0 460.92 357.18"><defs><style>.cls-1{fill:#b45914;}.cls-2{fill:#fc6f03;}</style></defs><path class="cls-1" d="M321.5,513.22c-11.41-2.48-50.07-36.19-51.56-66.92s0-72.88,25.78-84.28,53.54,4,53.54,4S385,278.24,487.08,273.78s143.27,56,162.6,90.72C672,353.59,747.34,337.23,727,462.16c-9.92,35.2-44.13,51.06-44.13,51.06Z" transform="translate(-269.54 -273.55)"/><path class="cls-2" d="M322.06,513.22c12.39-27.26,41.14-45.6,41.14-45.6,5.46-76.85,34.71-189.38,130.88-144.76,89.24-57,136.33,99.15,141.78,140.29,20.33,12.4,41.65,29.75,47.6,50.07,3,39.17-5.6,89.87-82.44,105.74s-131.73,14.73-182.79,2.34S316.6,591.24,317.6,529.09C319.58,513.22,322.06,513.22,322.06,513.22Z" transform="translate(-269.54 -273.55)"/></svg>